<svg width="13" height="14" viewBox="0 0 13 14" fill="none" xmlns="http://www.w3.org/2000/svg">
<path d="M11.9435 13.514C12.0755 13.706 12.1175 13.838 12.0695 13.91C12.0335 13.97 11.9435 14 11.7995 14H10.0895C9.90945 14 9.77745 13.934 9.69345 13.802L6.56145 8.996C6.47745 8.876 6.40545 8.816 6.34545 8.816C6.29745 8.804 6.22545 8.87 6.12945 9.014L3.03345 13.802C2.99745 13.874 2.94345 13.928 2.87145 13.964C2.79945 13.988 2.71545 14 2.61945 14H1.19745C1.06545 14 0.975453 13.97 0.927453 13.91C0.891453 13.838 0.933453 13.706 1.05345 13.514L5.08545 7.448C5.14545 7.352 5.16945 7.274 5.15745 7.214C5.15745 7.142 5.12745 7.058 5.06745 6.962L1.12545 0.985999C1.07745 0.913999 1.05945 0.842 1.07145 0.77C1.09545 0.685999 1.16145 0.643999 1.26945 0.643999H3.08745C3.20745 0.643999 3.29145 0.661999 3.33945 0.698C3.39945 0.721999 3.44745 0.769999 3.48345 0.842L6.34545 5.288C6.40545 5.372 6.45945 5.414 6.50745 5.414C6.56745 5.414 6.62745 5.372 6.68745 5.288L9.54945 0.842C9.59745 0.769999 9.64545 0.721999 9.69345 0.698C9.74145 0.661999 9.81945 0.643999 9.92745 0.643999H11.5115C11.6195 0.643999 11.6795 0.679999 11.6915 0.751999C11.7035 0.812 11.6795 0.878 11.6195 0.95L7.74945 6.764C7.68945 6.848 7.65945 6.92 7.65945 6.98C7.67145 7.04 7.70145 7.112 7.74945 7.196L11.9435 13.514Z" fill="white"/>
</svg>
